{"title":"Juicy J - Bandz A Make Her Dance (Ft. Lil Wayne, 2Chainz){M4A+MP","uid":7692393,"size":51108550,"categoryP":"video","categoryS":"music_videos","magnet":"?xt=urn:btih:ff6e3185a24c5fdd1a7432ef11a45cafd6a6372d&amp;dn=Juicy+J+-+Bandz+A+Make+Her+Dance+%28Ft.+Lil+Wayne%2C+2Chainz%29%7BM4A%2BMP&amp;tr=udp%3A%2F%2Ftracker.openbittorrent.com%3A80&amp;tr=udp%3A%2F%2Fopen.demonii.com%3A1337&amp;tr=udp%3A%2F%2Ftracker.coppersurfer.tk%3A6969&amp;tr=udp%3A%2F%2Fexodus.desync.com%3A6969","seeders":1,"leechers":5,"uploader":"Vitamin_X","files":-1,"time":1349275257,"description":"Cover:  &lt;a href=&quot;\nhttp://www.shotpix.com/images/58257960642963007394.jpg&quot; rel=&quot;nofollow&quot; target=&quot;_NEW&quot;&gt;\nhttp://www.shotpix.com/images/58257960642963007394.jpg&lt;/a&gt;\n\n\nRelease Title: Juicy J Ft. Lil Wayne &amp; 2 Chainz - Bandz A Make Her Dance (explicit) (2012)\n\nMusic video by Juicy J Ft. Lil Wayne and2 Chainz performing Bandz A Make Her Dance (Explicit). \n\n                              1080p Full HD MP4 Video\n                                        +            \n                               96 Kbps/VBR M4A Audio\n\n\nSing Along!\nEnglish subtitles included.\n\n\n\nGeneral\n\nFormat                         : MPEG-4\nFormat profile                 : Base Media / Version 2\nCodec ID                       : mp42\nFile size                      : 44.7 MiB\nDuration                       : 4mn 40s\nOverall bit rate mode          : Variable\nOverall bit rate               : 1 337 Kbps\n\n\nVideo\nID                             : 1\nFormat                         : AVC\nFormat/Info                    : Advanced Video Codec\nCodec ID/Info                  : Advanced Video Coding\nBit rate mode                  : Variable\nBit rate                       : 1 200 Kbps\nWidth                          : 1 920 pixels\nHeight                         : 1 080 pixels\nDisplay aspect ratio           : 16:9\nFrame rate mode                : Variable\nFrame rate                     : 23.976 fps\nBit depth                      : 8 bits\nScan type                      : Progressive\nStream size                    : 40.2 MiB (90%)\n\n\nAudio\nID                             : 2\nFormat                         : AAC\nFormat/Info                    : Advanced Audio Codec\nFormat profile                 : LC\nBit rate mode                  : Variable\nBit rate                       : 128 Kbps\nChannel(s)                     : 2 channels\nChannel positions              : Front: L R\nSampling rate                  : 48.0 KHz\nStream size                    : 4.27 MiB (10%)\n\n\n\n\nSubtitle                       : Yes (English)\n\n\n\nScreens:\n\n &lt;a href=&quot;\nhttp://www.shotpix.com/images/17433275256046117792.jpg&quot; rel=&quot;nofollow&quot; target=&quot;_NEW&quot;&gt;\nhttp://www.shotpix.com/images/17433275256046117792.jpg&lt;/a&gt; &lt;a href=&quot;\nhttp://www.shotpix.com/images/29118239144967708293.jpg&quot; rel=&quot;nofollow&quot; target=&quot;_NEW&quot;&gt;\nhttp://www.shotpix.com/images/29118239144967708293.jpg&lt;/a&gt;\n\n\nThumbs:\n &lt;a href=&quot;\nhttp://www.shotpix.com/images/08405704564920084220.jpg&quot; rel=&quot;nofollow&quot; target=&quot;_NEW&quot;&gt;\nhttp://www.shotpix.com/images/08405704564920084220.jpg&lt;/a&gt;\n\n\n------------------------------------------------------------------------\n\n\nNotes:\n\n* Best played on VLC Media Player.\n* Install shark007 codecs in case of any kind of problem in playback (For non-VLC Media Player users).\n* Alternatively, install Core AVC codecs, the fastest decoder that there is coupled with Community Center Codec Pack and play on Windows Media Player Classic.\n* Read NFO\n* Help in seeding this torrent as much as you can. \n\n\n\nGreets to: srkfan, VYTO, MgB, staff members at ExtraTorrent, TPB,KAT, 1337x, PublicHD, Ahashare,\nSilverTorrent, TorrentMafia, P2PDL, and all others\n\n\nEncoder Notes: Looking For Early Access To Anything You Can Provide DVDScr, R5, DVDRips, BluRay, Direct Audio, Early Music\nReleases, Seedboxes, Links, Dedicated Servers anything u can provide, Advance / Promo CDs/DVDs. If You Got anything to\noffer contact me at &quot;&lt;a class=&quot;__cf_email__&quot; href=&quot;/cdn-cgi/l/email-protection&quot; data-cfemail=&quot;83e0ecedf7e2e0f7c3f7eaedfaeeade6f6&quot;&gt;[email&amp;#160;protected]&lt;/a&gt;&lt;script cf-hash='f9e31' type=&quot;text/javascript&quot;&gt;\n/* &lt;![CDATA[ */!function(){try{var t=&quot;currentScript&quot;in document?document.currentScript:function(){for(var t=document.getElementsByTagName(&quot;script&quot;),e=t.length;e--;)if(t[e].getAttribute(&quot;cf-hash&quot;))return t[e]}();if(t&amp;&amp;t.previousSibling){var e,r,n,i,c=t.previousSibling,a=c.getAttribute(&quot;data-cfemail&quot;);if(a){for(e=&quot;&quot;,r=parseInt(a.substr(0,2),16),n=2;a.length-n;n+=2)i=parseInt(a.substr(n,2),16)^r,e+=String.fromCharCode(i);e=document.createTextNode(e),c.parentNode.replaceChild(e,c)}}}catch(u){}}();/* ]]&gt; */&lt;/script&gt;&quot;\n\n\nFacebook Fan Page: http : // www . facebook . com / p2pdl\n\n                                  Enjoy!","torrent":{"xt":"urn:btih:ff6e3185a24c5fdd1a7432ef11a45cafd6a6372d","amp;dn":"Juicy+J+-+Bandz+A+Make+Her+Dance+%28Ft.+Lil+Wayne%2C+2Chainz%29%7BM4A%2BMP","amp;tr":["udp%3A%2F%2Ftracker.openbittorrent.com%3A80","udp%3A%2F%2Fopen.demonii.com%3A1337","udp%3A%2F%2Ftracker.coppersurfer.tk%3A6969","udp%3A%2F%2Fexodus.desync.com%3A6969"],"infoHash":"ff6e3185a24c5fdd1a7432ef11a45cafd6a6372d","infoHashBuffer":{"type":"Buffer","data":[255,110,49,133,162,76,95,221,26,116,50,239,17,164,92,175,214,166,55,45]},"announce":[],"urlList":[]}}